<?xml version="1.0" encoding="utf-8"?>
<!-- Generator: Adobe Illustrator 16.0.0, SVG Export Plug-In . SVG Version: 6.00 Build 0)  -->
<!DOCTYPE svg PUBLIC "-//W3C//DTD SVG 1.1//EN" "http://www.w3.org/Graphics/SVG/1.1/DTD/svg11.dtd">
<svg version="1.1" id="Capa_1" xmlns="http://www.w3.org/2000/svg" xmlns:xlink="http://www.w3.org/1999/xlink" x="0px" y="0px"
	 width="512px" height="512px" viewBox="0 0 512 512" enable-background="new 0 0 512 512" xml:space="preserve">
<path fill="#FFFFFF" d="M487.967,30.93H281.023V8.574c0-4.734-3.838-8.573-8.572-8.573h-32.899c-4.734,0-8.572,3.838-8.572,8.573
	V30.93H24.034C10.781,30.93,0,41.712,0,54.965v309.288c0,13.253,10.781,24.036,24.034,24.036h137.242l-34.299,106.566h-14.131
	c-4.734,0-8.572,3.838-8.572,8.572s3.838,8.572,8.572,8.572h81.88c4.734,0,8.573-3.838,8.573-8.572s-3.839-8.572-8.573-8.572
	h-12.068l34.301-106.566h78.083l34.3,106.566h-12.067c-4.734,0-8.572,3.838-8.572,8.572S312.54,512,317.275,512h81.88
	c4.734,0,8.572-3.838,8.572-8.572s-3.838-8.572-8.572-8.572h-14.13l-34.299-106.566h137.242c13.253,0,24.033-10.783,24.033-24.036
	V54.965C512,41.712,501.219,30.93,487.967,30.93z M248.123,17.146h15.755V30.93h-15.755V17.146z M164.648,494.854H144.99
	l34.299-106.567h19.66L164.648,494.854z M367.013,494.854h-19.66l-34.301-106.567h19.66L367.013,494.854z M494.855,364.253
	c0,3.8-3.09,6.892-6.888,6.892H339.243c-0.188-0.008-0.376-0.008-0.564,0h-37.106c-0.188-0.008-0.376-0.008-0.564,0h-90.013
	c-0.19-0.008-0.377-0.008-0.564,0h-37.107c-0.188-0.008-0.377-0.008-0.563,0H24.034c-3.799,0-6.89-3.092-6.89-6.892V91.085h477.71
	V364.253z M494.855,73.94H17.145V54.965c0-3.8,3.091-6.89,6.89-6.89h463.933c3.798,0,6.888,3.089,6.888,6.89V73.94z"/>
<g>
	<g>
		<path fill="#FFFFFF" d="M339.737,235.389c-0.592-0.299-1.186-0.447-1.782-0.447c-1.287,0-2.42,0.493-3.407,1.482l-9.487,9.486
			c-0.887,0.891-1.333,1.976-1.333,3.262v37.646c0,6.523-2.316,12.104-6.964,16.75c-4.644,4.644-10.228,6.967-16.751,6.967H176.689
			c-6.522,0-12.105-2.323-16.75-6.967c-4.645-4.646-6.966-10.227-6.966-16.75V163.497c0-6.521,2.321-12.104,6.966-16.75
			c4.645-4.645,10.228-6.966,16.75-6.966h123.325c2.174,0,4.396,0.296,6.67,0.89c0.593,0.196,1.037,0.296,1.33,0.296
			c1.286,0,2.424-0.493,3.411-1.48l7.263-7.263c1.186-1.184,1.631-2.618,1.332-4.296c-0.296-1.582-1.187-2.718-2.669-3.41
			c-5.332-2.467-11.116-3.706-17.341-3.706H176.689c-11.759,0-21.813,4.175-30.164,12.525C138.176,141.688,134,151.741,134,163.501
			v123.323c0,11.758,4.176,21.813,12.525,30.163c8.35,8.353,18.405,12.527,30.164,12.527h123.322
			c11.758,0,21.814-4.175,30.164-12.527c8.352-8.351,12.53-18.404,12.53-30.163v-47.138
			C342.705,237.612,341.712,236.181,339.737,235.389z"/>
		<path fill="#FFFFFF" d="M376.944,150.307l-16.307-16.306c-2.371-2.371-5.189-3.557-8.451-3.557c-3.258,0-6.078,1.186-8.447,3.557
			l-95.903,95.902l-38.981-38.983c-2.371-2.373-5.188-3.557-8.448-3.557c-3.261,0-6.076,1.184-8.449,3.557l-16.305,16.305
			c-2.371,2.371-3.558,5.188-3.558,8.45c0,3.26,1.187,6.076,3.558,8.449l63.736,63.735c2.372,2.374,5.189,3.558,8.449,3.558
			s6.076-1.184,8.449-3.558l120.655-120.655c2.37-2.371,3.559-5.189,3.559-8.449S379.315,152.678,376.944,150.307z"/>
	</g>
</g>
</svg>
