<?xml version="1.0" encoding="utf-8"?>
<!-- Generator: Adobe Illustrator 16.0.0, SVG Export Plug-In . SVG Version: 6.00 Build 0)  -->
<!DOCTYPE svg PUBLIC "-//W3C//DTD SVG 1.1//EN" "http://www.w3.org/Graphics/SVG/1.1/DTD/svg11.dtd">
<svg version="1.1" id="Capa_1" xmlns="http://www.w3.org/2000/svg" xmlns:xlink="http://www.w3.org/1999/xlink" x="0px" y="0px"
	 width="512px" height="512px" viewBox="0 0 512 512" enable-background="new 0 0 512 512" xml:space="preserve">
<path fill="#FFFFFF" d="M192.046,425.974H36.199V65.337h293.334v93.501c0,5.913,4.793,10.706,10.706,10.706
	s10.706-4.792,10.706-10.706V54.631c0-5.913-4.793-10.706-10.706-10.706H36.199V32.668c0-6.441,3.765-11.254,7.132-11.254H340.24
	c5.913,0,10.706-4.793,10.706-10.706S346.153,0.002,340.24,0.002H43.331c-15.739,0-28.543,14.654-28.543,32.666V436.68
	c0,5.913,4.792,10.705,10.705,10.705h50.425v53.908c0,4.171,2.42,7.96,6.203,9.714c3.781,1.753,8.241,1.15,11.422-1.544
	l20.282-17.18l20.286,17.181c1.973,1.67,4.434,2.536,6.921,2.536c1.527,0,3.063-0.324,4.501-0.992
	c3.783-1.754,6.203-5.544,6.203-9.714v-53.907h40.31c5.913,0,10.706-4.793,10.706-10.706S197.958,425.975,192.046,425.974z
	 M130.325,478.199l-9.581-8.113c-1.996-1.691-4.458-2.536-6.919-2.536s-4.923,0.846-6.919,2.536l-9.577,8.111v-30.811h32.996
	V478.199z"/>
<path fill="#FFFFFF" d="M391.001,18.636c13.2,11.971,13.674,20.93,13.4,53.291c-0.037,4.245-0.075,8.804-0.075,13.724
	c0,17.429,11.725,32.173,27.701,36.758v127.101c0,5.913,4.793,10.706,10.706,10.706s10.706-4.793,10.706-10.706V122.302
	c15.488-4.631,26.82-18.938,27.35-36.327v-0.001c1.13-37.422-7.157-81.01-81.89-85.95c-4.559-0.299-8.781,2.308-10.561,6.5
	C386.56,10.716,387.628,15.577,391.001,18.636z M459.388,85.327c-0.294,9.614-7.684,17.145-16.827,17.145
	c-9.275,0-16.822-7.546-16.822-16.821c0-4.855,0.038-9.353,0.074-13.542c0.168-20.011,0.291-34.487-4.501-47.073
	C457.417,34.647,460.156,59.849,459.388,85.327z"/>
<path fill="#FFFFFF" d="M409.992,356.308h-0.029c-8.133,0-15.782,3.165-21.538,8.911c-11.897,11.876-11.916,31.219-0.041,43.119
	c5.754,5.764,13.407,8.943,21.552,8.951h0.029c8.133,0,15.781-3.163,21.537-8.91c11.9-11.876,11.919-31.22,0.043-43.119
	C425.79,359.496,418.137,356.316,409.992,356.308z M416.375,393.225c-1.714,1.711-3.991,2.652-6.413,2.652h-0.008
	c-2.425-0.002-4.704-0.949-6.415-2.664c-3.537-3.543-3.532-9.303,0.011-12.84c1.714-1.711,3.99-2.652,6.412-2.652h0.009
	c2.427,0.002,4.705,0.949,6.418,2.666c1.713,1.716,2.655,3.996,2.653,6.42C419.039,389.231,418.093,391.511,416.375,393.225z"/>
<path fill="#FFFFFF" d="M491.514,311.442c-5.984-13.03-15.667-21.354-27.266-23.439c-9.669-1.737-25.155,0.143-44.026,18.977
	c-9.218,9.202-24.221,9.183-33.438-0.033c-9.208-9.228-9.193-24.226,0.033-33.436c28.422-28.369,18.997-49.306,13.624-56.992
	c-12.672-18.119-35.355-18.119-50.366-18.119c-81.131,0-147.137,66.007-147.137,147.139s66.006,147.137,147.137,147.137
	c81.132,0,147.138-66.004,147.138-147.137C497.213,334.271,496.522,322.344,491.514,311.442z M350.075,471.266
	c-69.325,0-125.726-56.4-125.726-125.726s56.4-125.727,125.726-125.727c15.037,0,27.003,0.66,32.818,8.976
	c6.586,9.423-4.191,22.571-11.202,29.568c-17.582,17.548-17.61,46.13-0.056,63.723c17.564,17.563,46.146,17.589,63.712,0.055
	c9.622-9.602,18.544-14.236,25.112-13.059c5.771,1.039,9.492,6.719,11.598,11.303c3.107,6.764,3.743,14.949,3.743,25.159
	C475.801,414.863,419.402,471.264,350.075,471.266z"/>
<path fill="#FFFFFF" d="M316.737,389.416c-5.764,5.754-8.943,13.407-8.951,21.551c-0.008,8.143,3.157,15.804,8.911,21.567
	c5.945,5.958,13.763,8.937,21.58,8.937c7.798,0,15.598-2.966,21.539-8.896c11.898-11.876,11.918-31.219,0.042-43.12
	C347.981,377.555,328.638,377.537,316.737,389.416z M344.691,417.42c-3.544,3.536-9.302,3.53-12.839-0.014
	c-1.713-1.717-2.656-3.996-2.653-6.421c0.002-2.424,0.949-4.703,2.666-6.416c3.542-3.536,9.302-3.532,12.838,0.011
	C348.24,408.123,348.233,413.885,344.691,417.42z"/>
<path fill="#FFFFFF" d="M306.387,313.545h0.031c8.133,0,15.781-3.164,21.538-8.911c5.764-5.754,8.941-13.408,8.949-21.552
	s-3.158-15.805-8.911-21.567c-11.876-11.897-31.22-11.916-43.117-0.04c-5.766,5.754-8.944,13.408-8.953,21.551
	c-0.008,8.145,3.157,15.805,8.91,21.568C290.586,310.357,298.241,313.536,306.387,313.545z M300.002,276.631
	c1.771-1.766,4.093-2.648,6.414-2.648c2.328,0,4.655,0.886,6.425,2.659c1.713,1.717,2.656,3.997,2.654,6.423
	c-0.003,2.426-0.949,4.704-2.665,6.416c-1.715,1.711-3.992,2.652-6.414,2.652h-0.009c-2.427-0.002-4.705-0.949-6.418-2.666
	c-1.713-1.715-2.654-3.996-2.653-6.42C297.338,280.622,298.285,278.343,300.002,276.631z"/>
<path fill="#FFFFFF" d="M306.179,335.672c-11.878-11.896-31.222-11.916-43.12-0.039c-11.899,11.876-11.918,31.221-0.042,43.117
	c5.753,5.766,13.406,8.943,21.551,8.951h0.029c8.133,0,15.781-3.164,21.54-8.91C318.034,366.914,318.053,347.57,306.179,335.672z
	 M291.01,363.638c-1.714,1.71-3.991,2.653-6.413,2.653h-0.009c-2.426-0.003-4.704-0.949-6.417-2.666
	c-3.536-3.543-3.53-9.301,0.013-12.838c1.77-1.766,4.092-2.648,6.413-2.648c2.328,0,4.656,0.886,6.426,2.659
	C294.559,354.34,294.552,360.102,291.01,363.638z"/>
<polygon fill="#FFFFFF" points="388.424,365.22 388.424,365.22 388.424,365.22 "/>
<g>
	<g>
		<path fill="#FFFFFF" d="M204.689,175.301c-0.368-0.186-0.736-0.278-1.106-0.278c-0.799,0-1.503,0.307-2.116,0.921l-5.892,5.891
			c-0.55,0.553-0.826,1.227-0.826,2.025v23.376c0,4.05-1.439,7.516-4.325,10.4c-2.884,2.884-6.351,4.326-10.401,4.326h-76.576
			c-4.05,0-7.517-1.442-10.4-4.326c-2.884-2.885-4.326-6.35-4.326-10.4v-76.575c0-4.05,1.441-7.517,4.326-10.401
			c2.883-2.884,6.351-4.325,10.4-4.325h76.577c1.35,0,2.73,0.184,4.142,0.552c0.368,0.122,0.645,0.184,0.826,0.184
			c0.799,0,1.505-0.306,2.118-0.919l4.51-4.51c0.736-0.735,1.013-1.626,0.827-2.668c-0.184-0.982-0.736-1.688-1.657-2.117
			c-3.312-1.532-6.902-2.301-10.768-2.301h-76.575c-7.301,0-13.545,2.592-18.73,7.777c-5.184,5.186-7.777,11.429-7.777,18.731
			v76.576c0,7.301,2.593,13.544,7.777,18.729c5.185,5.187,11.429,7.779,18.73,7.779h76.575c7.301,0,13.546-2.593,18.73-7.779
			c5.186-5.185,7.78-11.428,7.78-18.729v-29.271C206.531,176.682,205.915,175.792,204.689,175.301z"/>
		<path fill="#FFFFFF" d="M227.792,122.47l-10.126-10.125c-1.473-1.472-3.223-2.208-5.248-2.208c-2.022,0-3.774,0.736-5.245,2.208
			l-59.55,59.55l-24.205-24.206c-1.473-1.474-3.222-2.209-5.246-2.209s-3.772,0.735-5.246,2.209l-10.124,10.124
			c-1.473,1.473-2.209,3.222-2.209,5.247c0,2.024,0.737,3.772,2.209,5.246l39.576,39.576c1.473,1.474,3.223,2.209,5.246,2.209
			c2.024,0,3.773-0.735,5.246-2.209l74.921-74.919c1.471-1.472,2.209-3.222,2.209-5.247C230,125.691,229.264,123.942,227.792,122.47
			z"/>
	</g>
</g>
</svg>
