<?xml version="1.0" encoding="utf-8"?>
<!-- Generator: Adobe Illustrator 16.0.0, SVG Export Plug-In . SVG Version: 6.00 Build 0)  -->
<!DOCTYPE svg PUBLIC "-//W3C//DTD SVG 1.1//EN" "http://www.w3.org/Graphics/SVG/1.1/DTD/svg11.dtd">
<svg version="1.1" id="Layer_1" xmlns="http://www.w3.org/2000/svg" xmlns:xlink="http://www.w3.org/1999/xlink" x="0px" y="0px"
	 width="512px" height="512px" viewBox="0 0 512 512" enable-background="new 0 0 512 512" xml:space="preserve">
<g>
	<g>
		<path fill="#FFFFFF" d="M96,352h320v-32H96V352z M96,416h320v-32H96V416z M256,192h160v-32H256V192z M256,256h160v-32H256V256z
			 M480,0H32C14.36,0,0,14.36,0,32v448c0,17.64,14.359,32,32,32h448c17.64,0,32-14.36,32-32V32C512,14.36,497.64,0,480,0z M400,32
			c8.844,0,16,7.156,16,16s-7.156,16-16,16c-8.845,0-16-7.156-16-16S391.156,32,400,32z M112,32h224c8.844,0,16,7.156,16,16
			s-7.156,16-16,16H112c-8.845,0-16-7.156-16-16S103.156,32,112,32z M48,32c8.844,0,16,7.156,16,16s-7.156,16-16,16
			c-8.845,0-16-7.156-16-16S39.156,32,48,32z M480,448c0,17.64-14.36,32-32,32H64c-17.641,0-32-14.36-32-32V128
			c0-17.64,14.359-32,32-32h384c17.64,0,32,14.36,32,32V448z M464,64c-8.845,0-16-7.156-16-16s7.155-16,16-16
			c8.844,0,16,7.156,16,16S472.844,64,464,64z"/>
	</g>
</g>
<g>
	<g>
		<path fill="#FFFFFF" d="M202.695,218.814c-0.309-0.156-0.617-0.233-0.929-0.233c-0.67,0-1.26,0.257-1.775,0.773l-4.943,4.94
			c-0.462,0.465-0.695,1.03-0.695,1.701v19.614c0,3.399-1.208,6.306-3.628,8.727c-2.419,2.419-5.329,3.63-8.728,3.63h-64.254
			c-3.398,0-6.308-1.211-8.728-3.63c-2.42-2.42-3.63-5.328-3.63-8.727v-64.254c0-3.398,1.21-6.308,3.63-8.727
			c2.419-2.419,5.329-3.629,8.728-3.629h64.255c1.133,0,2.291,0.153,3.475,0.463c0.31,0.102,0.542,0.155,0.694,0.155
			c0.671,0,1.262-0.257,1.777-0.771l3.784-3.784c0.617-0.617,0.85-1.365,0.694-2.239c-0.155-0.825-0.618-1.416-1.391-1.776
			c-2.779-1.285-5.791-1.931-9.035-1.931h-64.253c-6.127,0-11.366,2.175-15.717,6.525c-4.349,4.351-6.525,9.59-6.525,15.717v64.255
			c0,6.126,2.176,11.365,6.525,15.715c4.351,4.353,9.59,6.527,15.717,6.527h64.254c6.127,0,11.366-2.175,15.717-6.527
			c4.351-4.351,6.528-9.589,6.528-15.715v-24.56C204.241,219.972,203.724,219.227,202.695,218.814z"/>
		<path fill="#FFFFFF" d="M222.08,174.484l-8.497-8.495c-1.235-1.236-2.704-1.853-4.404-1.853c-1.697,0-3.166,0.617-4.401,1.853
			l-49.967,49.968l-20.311-20.312c-1.236-1.236-2.704-1.853-4.402-1.853s-3.166,0.617-4.402,1.853l-8.495,8.496
			c-1.235,1.235-1.854,2.703-1.854,4.402c0,1.698,0.619,3.167,1.854,4.402l33.209,33.208c1.236,1.237,2.704,1.854,4.402,1.854
			s3.167-0.616,4.401-1.854l62.865-62.864c1.235-1.236,1.854-2.704,1.854-4.402S223.315,175.72,222.08,174.484z"/>
	</g>
</g>
</svg>
